HIERARCHY
ROOT Hips
{
  OFFSET 5.84602e-005 68.8428 3.50346
  CHANNELS 6 Xposition Yposition Zposition Zrotation Xrotation Yrotation
  JOINT Spine
  {
    OFFSET 0 8.597 -4.6522
    CHANNELS 3 Zrotation Xrotation Yrotation
    JOINT Spine1
    {
      OFFSET 0 7.8454 0.4098
      CHANNELS 3 Zrotation Xrotation Yrotation
      JOINT Spine2
      {
        OFFSET 0 9.7078 -2.1609
        CHANNELS 3 Zrotation Xrotation Yrotation
        JOINT Neck
        {
          OFFSET 0 21.8761 -0.4549
          CHANNELS 3 Zrotation Xrotation Yrotation
          JOINT Head
          {
            OFFSET 0 12.3537 3.3602
            CHANNELS 3 Zrotation Xrotation Yrotation
            End Site
            {
              OFFSET 0.0001 18.9506 0.5657
            }
          }
        }
        JOINT LeftShoulder
        {
          OFFSET 2.2086 21.1115 7.2329
          CHANNELS 3 Zrotation Xrotation Yrotation
          JOINT LeftArm
          {
            OFFSET 13.1193 3.0282 -4.8998
            CHANNELS 3 Zrotation Xrotation Yrotation
            JOINT LeftForeArm
            {
              OFFSET 27.4081 -0.0973053 -0.2375
              CHANNELS 3 Zrotation Xrotation Yrotation
              JOINT LeftHand
              {
                OFFSET 22.8641 0.0662994 -0.1369
                CHANNELS 3 Zrotation Xrotation Yrotation
                JOINT LeftHandIndex1
                {
                  OFFSET 8.8614 0.775009 2.4612
                  CHANNELS 3 Zrotation Xrotation Yrotation
                  JOINT LeftHandIndex2
                  {
                    OFFSET 3.3146 -0.808304 0.5841
                    CHANNELS 3 Zrotation Xrotation Yrotation
                    JOINT LeftHandIndex3
                    {
                      OFFSET 2.2628 -0.552002 0.3989
                      CHANNELS 3 Zrotation Xrotation Yrotation
                      End Site
                      {
                        OFFSET 1.6102 -0.4807 0.2612
                      }
                    }
                  }
                }
                JOINT LeftHandMiddle1
                {
                  OFFSET 8.9937 0.895004 0.2143
                  CHANNELS 3 Zrotation Xrotation Yrotation
                  JOINT LeftHandMiddle2
                  {
                    OFFSET 4.0984 0.0113983 -0.0242
                    CHANNELS 3 Zrotation Xrotation Yrotation
                    JOINT LeftHandMiddle3
                    {
                      OFFSET 2.2716 0.00689697 -0.0138001
                      CHANNELS 3 Zrotation Xrotation Yrotation
                      End Site
                      {
                        OFFSET 2.0404 -0.1441 0.0027
                      }
                    }
                  }
                }
                JOINT LeftHandRing1
                {
                  OFFSET 8.5234 0.597198 -2.0164
                  CHANNELS 3 Zrotation Xrotation Yrotation
                  JOINT LeftHandRing2
                  {
                    OFFSET 3.7188 -0.188293 -0.2328
                    CHANNELS 3 Zrotation Xrotation Yrotation
                    JOINT LeftHandRing3
                    {
                      OFFSET 2.1191 -0.106598 -0.1332
                      CHANNELS 3 Zrotation Xrotation Yrotation
                      End Site
                      {
                        OFFSET 1.8737 -0.2304 -0.0886
                      }
                    }
                  }
                }
                JOINT LeftHandPinky1
                {
                  OFFSET 7.9094 -0.601089 -3.4825
                  CHANNELS 3 Zrotation Xrotation Yrotation
                  JOINT LeftHandPinky2
                  {
                    OFFSET 2.2874 -0.477005 -0.6314
                    CHANNELS 3 Zrotation Xrotation Yrotation
                    JOINT LeftHandPinky3
                    {
                      OFFSET 1.6774 -0.349396 -0.4633
                      CHANNELS 3 Zrotation Xrotation Yrotation
                      End Site
                      {
                        OFFSET 1.4888 -0.4091 -0.3416
                      }
                    }
                  }
                }
                JOINT LeftHandThumb1
                {
                  OFFSET 1.833 -1.3875 1.3896
                  CHANNELS 3 Zrotation Xrotation Yrotation
                  JOINT LeftHandThumb2
                  {
                    OFFSET 3.4129 -1.121 2.5732
                    CHANNELS 3 Zrotation Xrotation Yrotation
                    JOINT LeftHandThumb3
                    {
                      OFFSET 2.2474 -0.804199 1.6192
                      CHANNELS 3 Zrotation Xrotation Yrotation
                      End Site
                      {
                        OFFSET 1.6527 -0.5689 1.1317
                      }
                    }
                  }
                }
              }
            }
          }
        }
        JOINT RightShoulder
        {
          OFFSET -2.2086 21.1115 7.2329
          CHANNELS 3 Zrotation Xrotation Yrotation
          JOINT RightArm
          {
            OFFSET -13.1216 3.0287 -4.9007
            CHANNELS 3 Zrotation Xrotation Yrotation
            JOINT RightForeArm
            {
              OFFSET -27.4081 -0.0973053 -0.2375
              CHANNELS 3 Zrotation Xrotation Yrotation
              JOINT RightHand
              {
                OFFSET -22.8641 0.0664063 -0.1369
                CHANNELS 3 Zrotation Xrotation Yrotation
                JOINT RightHandIndex1
                {
                  OFFSET -8.8614 0.774994 2.4612
                  CHANNELS 3 Zrotation Xrotation Yrotation
                  JOINT RightHandIndex2
                  {
                    OFFSET -3.3146 -0.808304 0.5841
                    CHANNELS 3 Zrotation Xrotation Yrotation
                    JOINT RightHandIndex3
                    {
                      OFFSET -2.2628 -0.552002 0.3989
                      CHANNELS 3 Zrotation Xrotation Yrotation
                      End Site
                      {
                        OFFSET -1.6102 -0.4807 0.2612
                      }
                    }
                  }
                }
                JOINT RightHandMiddle1
                {
                  OFFSET -8.9937 0.894989 0.2143
                  CHANNELS 3 Zrotation Xrotation Yrotation
                  JOINT RightHandMiddle2
                  {
                    OFFSET -4.0984 0.0113983 -0.0242
                    CHANNELS 3 Zrotation Xrotation Yrotation
                    JOINT RightHandMiddle3
                    {
                      OFFSET -2.2716 0.00691223 -0.0138001
                      CHANNELS 3 Zrotation Xrotation Yrotation
                      End Site
                      {
                        OFFSET -2.0404 -0.1441 0.0027
                      }
                    }
                  }
                }
                JOINT RightHandRing1
                {
                  OFFSET -8.5234 0.597198 -2.0164
                  CHANNELS 3 Zrotation Xrotation Yrotation
                  JOINT RightHandRing2
                  {
                    OFFSET -3.7188 -0.188309 -0.2328
                    CHANNELS 3 Zrotation Xrotation Yrotation
                    JOINT RightHandRing3
                    {
                      OFFSET -2.1191 -0.106598 -0.1332
                      CHANNELS 3 Zrotation Xrotation Yrotation
                      End Site
                      {
                        OFFSET -1.8737 -0.2304 -0.0886
                      }
                    }
                  }
                }
                JOINT RightHandPinky1
                {
                  OFFSET -7.9094 -0.601105 -3.4825
                  CHANNELS 3 Zrotation Xrotation Yrotation
                  JOINT RightHandPinky2
                  {
                    OFFSET -2.2874 -0.477005 -0.6314
                    CHANNELS 3 Zrotation Xrotation Yrotation
                    JOINT RightHandPinky3
                    {
                      OFFSET -1.6774 -0.349396 -0.4633
                      CHANNELS 3 Zrotation Xrotation Yrotation
                      End Site
                      {
                        OFFSET -1.4888 -0.4091 -0.3416
                      }
                    }
                  }
                }
                JOINT RightHandThumb1
                {
                  OFFSET -1.833 -1.38751 1.3896
                  CHANNELS 3 Zrotation Xrotation Yrotation
                  JOINT RightHandThumb2
                  {
                    OFFSET -3.41299 -1.12099 2.5732
                    CHANNELS 3 Zrotation Xrotation Yrotation
                    JOINT RightHandThumb3
                    {
                      OFFSET -2.24741 -0.804108 1.6192
                      CHANNELS 3 Zrotation Xrotation Yrotation
                      End Site
                      {
                        OFFSET -1.6527 -0.5689 1.1317
                      }
                    }
                  }
                }
              }
            }
          }
        }
      }
    }
  }
  JOINT RightUpLeg
  {
    OFFSET -9.1966 3.8861 -0.7581
    CHANNELS 3 Zrotation Xrotation Yrotation
    JOINT RightLeg
    {
      OFFSET -0.7359 -41.0265 0
      CHANNELS 3 Zrotation Xrotation Yrotation
      JOINT RightFoot
      {
        OFFSET 0 -40.2855 0
        CHANNELS 3 Zrotation Xrotation Yrotation
        JOINT RightToeBase
        {
          OFFSET 0 -5.6122 11.7359
          CHANNELS 3 Zrotation Xrotation Yrotation
          End Site
          {
            OFFSET 0 0 7.8731
          }
        }
      }
    }
  }
  JOINT LeftUpLeg
  {
    OFFSET 9.1965 3.8864 -0.7581
    CHANNELS 3 Zrotation Xrotation Yrotation
    JOINT LeftLeg
    {
      OFFSET 0.7359 -41.0268 0
      CHANNELS 3 Zrotation Xrotation Yrotation
      JOINT LeftFoot
      {
        OFFSET 0 -40.2855 0
        CHANNELS 3 Zrotation Xrotation Yrotation
        JOINT LeftToeBase
        {
          OFFSET 0 -5.6122 11.7359
          CHANNELS 3 Zrotation Xrotation Yrotation
          End Site
          {
            OFFSET 0 0 7.8731
          }
        }
      }
    }
  }
}
MOTION
Frames:	5
Frame Time:	0.0333333
-0.559079 -3.40327 51.262 -0.350155 -80.7422 -175.61 3.66118 1.26507 3.00743 7.25396 2.71787 5.93038 7.25396 2.71787 5.93039 -10.1505 9.83665 23.7501 -6.02431 4.9682 36.1219 4.3065 -38.6633 26.9327 -54.3574 -2.19473 -37.1796 54.11 -4.24084 -95.6771 82.1419 -78.3552 67.5941 -1.17979e-006 -2.21465e-007 -7.35272e-007 -3.75948e-006 1.70562e-007 -2.75598e-006 -1.59028e-015 6.75868e-015 3.18055e-015 -1.17979e-006 -2.21465e-007 -7.35272e-007 -0.0145911 -8.77524e-005 -1.10828e-005 1.59028e-015 -4.96962e-015 -1.59028e-015 -1.17979e-006 -2.21465e-007 -7.35272e-007 -0.0187365 -0.00117012 4.91668e-005 1.59028e-015 3.37934e-015 3.18055e-015 -1.17979e-006 -2.21465e-007 -7.35272e-007 -0.012249 -0.00324722 0.000682226 1.59028e-015 2.78299e-015 -0 -1.17979e-006 -2.21465e-007 -7.35272e-007 -3.75948e-006 1.70562e-007 -2.75598e-006 -1.59028e-015 6.75868e-015 3.18055e-015 -30.8853 -41.6736 -29.7582 54.6718 4.27567 43.8939 -0.579266 16.1147 120.22 -29.4799 7.9682 -34.8852 -1.59028e-015 1.19271e-015 -1.59028e-015 -7.95139e-016 4.27387e-015 -7.95139e-016 -7.95139e-016 4.17448e-015 -1.59028e-015 -1.59028e-015 1.19271e-015 -1.59028e-015 0.0149796 -8.99262e-005 -2.52253e-006 8.74653e-015 -4.37326e-015 -7.15625e-015 -1.59028e-015 1.19271e-015 -1.59028e-015 0.01897 -0.00119167 -5.6988e-005 7.95139e-016 -1.18277e-014 -7.95139e-016 -1.59028e-015 1.19271e-015 -1.59028e-015 0.012295 -0.00324971 -0.000677366 -1.30058e-006 8.88445e-008 8.30287e-007 -1.59028e-015 1.19271e-015 -1.59028e-015 -7.95139e-016 4.27387e-015 -7.95139e-016 -7.95139e-016 4.17448e-015 -1.59028e-015 -5.51019 -2.98326 0.789801 4.05141 26.2101 -4.75632 -16.4747 32.7162 12.4029 2.86888e-006 6.46099e-006 -2.4596e-007 4.83024 -0.368744 0.800826 2.40193 20.3684 -0.646269 15.1923 16.8503 0.527389 -7.21733e-007 1.48748e-007 4.27092e-007 
-0.55741 -3.39863 51.2658 -0.345969 -80.7902 -175.632 3.66118 1.26507 3.00742 7.25396 2.71787 5.93038 7.25396 2.71788 5.93038 -10.1506 9.83579 23.7502 -6.02423 4.96812 36.4221 4.23439 -38.5983 26.8113 -54.355 -2.20391 -37.1738 54.11 -4.24084 -95.6771 82.1419 -78.3552 67.5941 -1.48969e-031 -3.57812e-015 -2.38542e-015 -1.59028e-015 -1.98785e-016 -1.59028e-015 1.59028e-015 -1.23246e-014 -2.38542e-015 -1.48969e-031 -3.57812e-015 -2.38542e-015 -0.0146266 -8.66239e-005 8.55292e-006 -1.54487e-031 -1.11319e-014 -7.95139e-016 -1.48969e-031 -3.57812e-015 -2.38542e-015 -0.0187758 -0.00117736 6.31061e-005 -4.77083e-015 2.38542e-015 2.38542e-015 -1.48969e-031 -3.57812e-015 -2.38542e-015 -0.0122786 -0.00325491 0.000681792 -1.59028e-015 -8.15017e-015 2.38542e-015 -1.48969e-031 -3.57812e-015 -2.38542e-015 -1.59028e-015 -1.98785e-016 -1.59028e-015 1.59028e-015 -1.23246e-014 -2.38542e-015 -30.8021 -41.579 -29.6436 54.6702 4.2623 43.8878 -0.575808 16.1107 120.199 -29.4799 7.9682 -34.8852 -7.95139e-016 -8.94531e-016 7.95139e-016 7.95139e-016 2.18663e-015 7.95139e-016 7.95139e-016 5.36719e-015 -7.95139e-016 -7.95139e-016 -8.94531e-016 7.95139e-016 0.0150038 -9.63017e-005 -2.77058e-006 8.74653e-015 9.93923e-016 -7.15625e-015 -7.95139e-016 -8.94531e-016 7.95139e-016 0.0189866 -0.00119218 -5.67783e-005 -0 -2.68359e-015 -0 -7.95139e-016 -8.94531e-016 7.95139e-016 0.0122634 -0.00324667 -0.000674449 -1.59028e-015 -8.15017e-015 2.38542e-015 -7.95139e-016 -8.94531e-016 7.95139e-016 7.95139e-016 2.18663e-015 7.95139e-016 7.95139e-016 5.36719e-015 -7.95139e-016 -5.51823 -2.98771 0.794044 4.05143 26.2104 -4.75645 -16.4748 32.7157 12.4029 1.77092e-007 4.78267e-006 7.83998e-007 4.83008 -0.369363 0.80081 2.40192 20.3681 -0.646311 15.1925 16.8512 0.527229 -7.17452e-007 3.45227e-006 2.48676e-006 
-0.555767 -3.39406 51.2696 -0.341783 -80.8375 -175.653 3.66118 1.26506 3.00743 7.25396 2.71788 5.93038 7.25396 2.71787 5.93038 -10.1506 9.83589 23.7502 -6.02415 4.96807 36.7222 4.16251 -38.5333 26.6901 -54.3527 -2.21308 -37.168 54.11 -4.24086 -95.6771 82.1419 -78.3552 67.5941 6.66187e-007 2.13896e-006 -1.66618e-006 -4.77083e-015 -1.07344e-014 -3.97569e-015 -3.18055e-015 -8.94531e-015 -3.18055e-015 6.66187e-007 2.13896e-006 -1.66618e-006 -0.0146079 -8.95646e-005 -6.02394e-007 -6.64657e-007 -2.13916e-006 1.66591e-006 6.66187e-007 2.13896e-006 -1.66618e-006 -0.0187872 -0.00117462 6.36929e-005 6.64205e-007 2.13911e-006 -1.66583e-006 6.66187e-007 2.13896e-006 -1.66618e-006 -0.0122701 -0.00324878 0.000681041 -4.77083e-015 8.54774e-015 3.18055e-015 6.66187e-007 2.13896e-006 -1.66618e-006 -4.77083e-015 -1.07344e-014 -3.97569e-015 -3.18055e-015 -8.94531e-015 -3.18055e-015 -30.7192 -41.4842 -29.5294 54.6685 4.24892 43.8818 -0.572371 16.1068 120.177 -29.4799 7.9682 -34.8852 1.9616e-006 -1.91615e-006 -1.24826e-006 3.87775e-006 4.54476e-008 -2.85612e-006 6.73755e-007 -1.83448e-006 -4.50497e-007 1.9616e-006 -1.91615e-006 -1.24826e-006 0.0149823 -9.81379e-005 8.80998e-008 1.96139e-006 -1.91631e-006 -1.24801e-006 1.9616e-006 -1.91615e-006 -1.24826e-006 0.0190156 -0.00119884 -5.93826e-005 1.96132e-006 -1.91634e-006 -1.24796e-006 1.9616e-006 -1.91615e-006 -1.24826e-006 0.0122382 -0.00323974 -0.000676826 1.9614e-006 -1.91623e-006 -1.2481e-006 1.9616e-006 -1.91615e-006 -1.24826e-006 3.87775e-006 4.54476e-008 -2.85612e-006 6.73755e-007 -1.83448e-006 -4.50497e-007 -5.52626 -2.99211 0.798291 4.05146 26.2106 -4.75657 -16.4749 32.7153 12.4028 1.43456e-006 3.23177e-006 -1.22748e-007 4.82993 -0.369908 0.800801 2.40191 20.3677 -0.646373 15.1927 16.8522 0.527068 -1.31053e-007 -2.6776e-007 -1.87066e-006 
-0.554151 -3.38955 51.2732 -0.337763 -80.8841 -175.674 3.66117 1.26506 3.00743 7.25396 2.71788 5.93038 7.25396 2.71786 5.93039 -10.1506 9.83672 23.75 -6.02406 4.96801 37.0224 4.09087 -38.4681 26.5691 -54.3503 -2.22225 -37.1622 54.11 -4.24083 -95.6771 82.1419 -78.3552 67.5941 -1.85641e-006 -2.37659e-006 9.52099e-007 1.59028e-015 4.37326e-015 3.18055e-015 3.18055e-015 4.57205e-015 3.97569e-015 -1.85641e-006 -2.37659e-006 9.52099e-007 -0.0146201 -8.65661e-005 -4.20059e-006 -1.59028e-015 7.95139e-015 4.77083e-015 -1.85641e-006 -2.37659e-006 9.52099e-007 -0.0187556 -0.00117448 4.94647e-005 3.18055e-015 -8.34896e-015 -0 -1.85641e-006 -2.37659e-006 9.52099e-007 -0.012312 -0.0032524 0.000677665 6.60776e-007 2.1269e-006 -1.65512e-006 -1.85641e-006 -2.37659e-006 9.52099e-007 1.59028e-015 4.37326e-015 3.18055e-015 3.18055e-015 4.57205e-015 3.97569e-015 -30.6367 -41.3893 -29.4155 54.6668 4.23557 43.8758 -0.56895 16.1029 120.155 -29.4799 7.96821 -34.8852 1.28083e-006 -7.79034e-008 -7.81591e-007 7.95139e-016 2.31584e-014 -7.95139e-016 -7.95139e-016 2.32578e-014 -1.59028e-015 1.28083e-006 -7.79034e-008 -7.81591e-007 0.0149705 -9.80562e-005 -4.41752e-006 1.59028e-015 6.75868e-015 -2.38542e-015 1.28083e-006 -7.79034e-008 -7.81591e-007 0.0189994 -0.00119152 -5.99987e-005 1.27879e-006 -7.79052e-008 -7.81585e-007 1.28083e-006 -7.79034e-008 -7.81591e-007 0.0122496 -0.00324216 -0.000669196 8.74653e-015 -7.7526e-015 -9.54166e-015 1.28083e-006 -7.79034e-008 -7.81591e-007 7.95139e-016 2.31584e-014 -7.95139e-016 -7.95139e-016 2.32578e-014 -1.59028e-015 -5.53429 -2.9964 0.802538 4.05145 26.2106 -4.75667 -16.475 32.7149 12.4028 8.59226e-009 6.20061e-006 1.74114e-006 4.82978 -0.370528 0.800779 2.40191 20.3675 -0.646404 15.1929 16.853 0.526941 -8.52581e-007 -1.19669e-007 -1.44442e-006 
-0.552565 -3.38511 51.2769 -0.333898 -80.93 -175.695 3.66116 1.26503 3.00743 7.25396 2.71784 5.93038 7.25396 2.71789 5.93038 -10.1506 9.83592 23.7501 -6.02398 4.96795 37.3225 4.01947 -38.4028 26.4483 -54.348 -2.23141 -37.1564 54.11 -4.24084 -95.6771 82.1417 -78.3552 67.5939 1.59028e-015 -6.95746e-015 1.59028e-015 3.18055e-015 -6.36111e-015 7.95139e-016 3.18055e-015 -5.36719e-015 -1.59028e-015 1.59028e-015 -6.95746e-015 1.59028e-015 -0.0146078 -8.71562e-005 3.39983e-006 -7.95139e-015 2.18663e-015 -4.77083e-015 1.59028e-015 -6.95746e-015 1.59028e-015 -0.0187596 -0.00117864 5.66952e-005 0 8.15017e-015 -0 1.59028e-015 -6.95746e-015 1.59028e-015 -0.012257 -0.00324376 0.000678551 -1.59028e-015 5.56597e-015 -2.38542e-015 1.59028e-015 -6.95746e-015 1.59028e-015 3.18055e-015 -6.36111e-015 7.95139e-016 3.18055e-015 -5.36719e-015 -1.59028e-015 -30.5546 -41.2943 -29.302 54.6651 4.22221 43.8697 -0.565498 16.099 120.133 -29.4799 7.96822 -34.8852 -1.27383e-006 7.41199e-008 7.65499e-007 2.38542e-015 1.59028e-015 -7.95139e-016 1.27383e-006 -7.41199e-008 -7.65499e-007 -1.27383e-006 7.41199e-008 7.65499e-007 0.0149881 -9.31817e-005 -9.49988e-007 -2.38542e-015 -4.17448e-015 1.59028e-015 -1.27383e-006 7.41199e-008 7.65499e-007 0.0189865 -0.0011915 -5.00739e-005 7.95139e-016 -1.49089e-015 1.59028e-015 -1.27383e-006 7.41199e-008 7.65499e-007 0.0122646 -0.00325182 -0.000687315 -7.95139e-016 8.94531e-016 -0 -1.27383e-006 7.41199e-008 7.65499e-007 2.38542e-015 1.59028e-015 -7.95139e-016 1.27383e-006 -7.41199e-008 -7.65499e-007 -5.54232 -3.00082 0.806783 4.05147 26.2107 -4.75679 -16.4751 32.7146 12.4028 -1.4941e-007 5.93904e-008 -3.95033e-007 4.82964 -0.3712 0.800767 2.40191 20.3674 -0.646445 15.1931 16.8538 0.526802 -3.01916e-006 3.24944e-007 -1.66634e-007 
